<svg xmlns="http://www.w3.org/2000/svg" viewBox="0 0 133.86 133.86"><defs><style>.cls-1,.cls-3{fill:#fff;}.cls-2{fill:#127ad9;}.cls-3,.cls-4{stroke:#000;stroke-linecap:round;stroke-linejoin:round;}.cls-4{fill:#fd7900;}</style></defs><g id="Layer_2" data-name="Layer 2"><g id="Layer_22" data-name="Layer 22"><rect class="cls-1" x="0.5" y="0.5" width="132.86" height="132.86" rx="28.58"/><path class="cls-2" d="M104.78,1a28.12,28.12,0,0,1,28.08,28.08v75.7a28.12,28.12,0,0,1-28.08,28.08H29.08A28.12,28.12,0,0,1,1,104.78V29.08A28.12,28.12,0,0,1,29.08,1h75.7m0-1H29.08A29.08,29.08,0,0,0,0,29.08v75.7a29.08,29.08,0,0,0,29.08,29.08h75.7a29.08,29.08,0,0,0,29.08-29.08V29.08A29.08,29.08,0,0,0,104.78,0Z"/></g><g id="Layer_18" data-name="Layer 18"><circle class="cls-3" cx="74.15" cy="58.07" r="31.63"/><circle class="cls-4" cx="74.15" cy="58.07" r="27.35"/><rect class="cls-3" x="45.56" y="82.81" width="8.01" height="2.04" transform="translate(-44.76 59.6) rotate(-45)"/><rect class="cls-4" x="25.24" y="90.44" width="25.28" height="10.47" rx="2.02" transform="translate(-56.56 54.81) rotate(-45)"/><circle class="cls-3" cx="52.63" cy="61.54" r="1.96"/><path class="cls-3" d="M75.87,37.29C66,36.82,56.41,44.46,54.68,54.12a2.17,2.17,0,0,1-1.76,1.8h0c-.86.08-1.48-.78-1.27-1.88C53.78,42.79,65,34,76.42,34.64c1.11.06,1.82.8,1.58,1.51h0A2.12,2.12,0,0,1,75.87,37.29Z"/></g></g></svg>