<svg xmlns="http://www.w3.org/2000/svg" viewBox="0 0 133.86 133.86"><defs><style>.cls-1,.cls-3{fill:#fff;}.cls-2{fill:#127ad9;}.cls-3,.cls-4{stroke:#000;stroke-linecap:round;stroke-linejoin:round;}.cls-4{fill:#fd7900;}</style></defs><g id="Layer_2" data-name="Layer 2"><g id="Layer_22" data-name="Layer 22"><rect class="cls-1" x="0.5" y="0.5" width="132.86" height="132.86" rx="28.58"/><path class="cls-2" d="M104.78,1a28.12,28.12,0,0,1,28.08,28.08v75.7a28.12,28.12,0,0,1-28.08,28.08H29.08A28.12,28.12,0,0,1,1,104.78V29.08A28.12,28.12,0,0,1,29.08,1h75.7m0-1H29.08A29.08,29.08,0,0,0,0,29.08v75.7a29.08,29.08,0,0,0,29.08,29.08h75.7a29.08,29.08,0,0,0,29.08-29.08V29.08A29.08,29.08,0,0,0,104.78,0Z"/></g><g id="Layer_20" data-name="Layer 20"><path class="cls-3" d="M100.74,95.48,76.58,59.79V34.57H57V59.79L32.85,95.48a8.85,8.85,0,0,0,7.32,13.81H93.42A8.85,8.85,0,0,0,100.74,95.48Z"/><rect class="cls-4" x="50.9" y="24.75" width="31.79" height="11.94" rx="5.97"/><path class="cls-4" d="M70,43.14h6.6a0,0,0,0,1,0,0v2.64a0,0,0,0,1,0,0H70a1.32,1.32,0,0,1-1.32-1.32v0A1.32,1.32,0,0,1,70,43.14Z"/><path class="cls-4" d="M47.52,73.8s1.23,13.51,15.4,10.44,13.44-9.18,32.25,3c0,0,11.91,13.45,5.47,18.31,0,0-2.61,5.55-20,3.73H42.24S30,110,31.64,98.06Z"/><circle class="cls-4" cx="59.88" cy="67.85" r="2.3"/><circle class="cls-4" cx="66.39" cy="74.61" r="2.11"/><circle class="cls-4" cx="69.54" cy="61.75" r="2.3"/><path class="cls-4" d="M70,48.6h6.6a0,0,0,0,1,0,0v2.64a0,0,0,0,1,0,0H70a1.32,1.32,0,0,1-1.32-1.32v0A1.32,1.32,0,0,1,70,48.6Z"/></g></g></svg>