<svg xmlns="http://www.w3.org/2000/svg" viewBox="0 0 133.86 133.86"><defs><style>.cls-1,.cls-3{fill:#fff;}.cls-2{fill:#127ad9;}.cls-3,.cls-4{stroke:#000;stroke-linecap:round;stroke-linejoin:round;}.cls-4{fill:#fd7900;}</style></defs><g id="Layer_2" data-name="Layer 2"><g id="Layer_22" data-name="Layer 22"><rect class="cls-1" x="0.5" y="0.5" width="132.86" height="132.86" rx="28.58"/><path class="cls-2" d="M104.78,1a28.12,28.12,0,0,1,28.08,28.08v75.7a28.12,28.12,0,0,1-28.08,28.08H29.08A28.12,28.12,0,0,1,1,104.78V29.08A28.12,28.12,0,0,1,29.08,1h75.7m0-1H29.08A29.08,29.08,0,0,0,0,29.08v75.7a29.08,29.08,0,0,0,29.08,29.08h75.7a29.08,29.08,0,0,0,29.08-29.08V29.08A29.08,29.08,0,0,0,104.78,0Z"/></g><g id="Layer_19" data-name="Layer 19"><rect class="cls-3" x="44.5" y="24.35" width="45.11" height="85.33" rx="22.56" transform="translate(52.48 -26.66) rotate(36.18)"/><path class="cls-4" d="M52.52,61.91l-6.45,8.83a4.06,4.06,0,0,1-5.42,1.15,3.9,3.9,0,0,1-1-5.58L37,69.93a22.57,22.57,0,0,0,4.89,31.53h0a22.55,22.55,0,0,0,31.52-4.9L85.26,80.33,58.76,61A4.47,4.47,0,0,0,52.52,61.91Z"/></g></g></svg>