<svg xmlns="http://www.w3.org/2000/svg" viewBox="0 0 133.86 133.86"><defs><style>.cls-1{fill:#fff;}.cls-2{fill:#127ad9;}.cls-3{fill:#fd7900;stroke:#000;stroke-linecap:round;stroke-linejoin:round;}</style></defs><g id="Layer_2" data-name="Layer 2"><g id="Layer_22" data-name="Layer 22"><rect class="cls-1" x="0.5" y="0.5" width="132.86" height="132.86" rx="28.58"/><path class="cls-2" d="M104.78,1a28.12,28.12,0,0,1,28.08,28.08v75.7a28.12,28.12,0,0,1-28.08,28.08H29.08A28.12,28.12,0,0,1,1,104.78V29.08A28.12,28.12,0,0,1,29.08,1h75.7m0-1H29.08A29.08,29.08,0,0,0,0,29.08v75.7a29.08,29.08,0,0,0,29.08,29.08h75.7a29.08,29.08,0,0,0,29.08-29.08V29.08A29.08,29.08,0,0,0,104.78,0Z"/></g><g id="Layer_21" data-name="Layer 21"><path class="cls-3" d="M98.25,52.72H81.14V35.61a9,9,0,0,0-9-9H61.74a9,9,0,0,0-9,9V52.72H35.61a9,9,0,0,0-9,9V72.12a9,9,0,0,0,9,9H52.72V98.25a9,9,0,0,0,9,9H72.12a9,9,0,0,0,9-9V81.14H98.25a9,9,0,0,0,9-9V61.74A9,9,0,0,0,98.25,52.72Z"/></g></g></svg>