<svg xmlns="http://www.w3.org/2000/svg" viewBox="0 0 23.6 44.6"><defs><style>.cls-1{fill:#127ad9;}</style></defs><g id="Layer_2" data-name="Layer 2"><g id="patients"><path id="Rectangle_40" data-name="Rectangle 40" class="cls-1" d="M2.21,21.38l21,21a1.3,1.3,0,0,1,0,1.83h0a1.3,1.3,0,0,1-1.83,0l-21-21a1.29,1.29,0,0,1,0-1.83h0A1.29,1.29,0,0,1,2.21,21.38Z"/><path id="Rectangle_41" data-name="Rectangle 41" class="cls-1" d="M.38,21.39l21-21a1.29,1.29,0,0,1,1.83,0h0a1.3,1.3,0,0,1,0,1.83l-21,21a1.3,1.3,0,0,1-1.83,0h0A1.29,1.29,0,0,1,.38,21.39Z"/></g></g></svg>